<svg width="22" height="22" viewBox="0 0 22 22" fill="none" xmlns="http://www.w3.org/2000/svg">
<g clip-path="url(#clip0_4028_61)">
<path d="M6 19H16C16.5523 19 17 18.4883 17 17.8571V6.42857L14 3H6C5.44771 3 5 3.51168 5 4.14286V17.8571C5 18.4883 5.44771 19 6 19Z" fill="#FF4136"/>
<path fill-rule="evenodd" clip-rule="evenodd" d="M7.78711 7.79951C7.78754 7.35078 8.15166 6.98736 8.60039 6.98779L11.8004 6.99087C12.2491 6.9913 12.6125 7.35542 12.6121 7.80415C12.6117 8.25288 12.2476 8.6163 11.7988 8.61587L8.59883 8.61279C8.1501 8.61236 7.78668 8.24824 7.78711 7.79951ZM7.78711 11.3165C7.78711 10.8677 8.15088 10.504 8.59961 10.504H13.3996C13.8483 10.504 14.2121 10.8677 14.2121 11.3165C14.2121 11.7652 13.8483 12.129 13.3996 12.129H8.59961C8.15088 12.129 7.78711 11.7652 7.78711 11.3165ZM7.78711 14.8313C7.78783 14.3826 8.15218 14.0194 8.60091 14.0201L13.4009 14.0278C13.8496 14.0285 14.2128 14.3929 14.2121 14.8416C14.2114 15.2903 13.847 15.6535 13.3983 15.6528L8.59831 15.6451C8.14958 15.6444 7.78639 15.2801 7.78711 14.8313Z" fill="black"/>
</g>
<defs>
<clipPath id="clip0_4028_61">
<rect width="22" height="22" fill="white"/>
</clipPath>
</defs>
</svg>
