<svg width="22" height="22" viewBox="0 0 22 22" fill="none" xmlns="http://www.w3.org/2000/svg">
<rect x="1.1001" y="18.7" width="9.9" height="2.2" rx="1.1" fill="#FF4136"/>
<path d="M1.52806 10.6936L5.64928 14.8727C6.23053 15.4648 7.18775 15.449 7.78573 14.8435C8.30239 14.3198 8.37909 13.5255 8.01638 12.9375L9.83221 11.0969L11.3061 12.5926C11.2507 13.0672 11.3972 13.5605 11.7565 13.9241L18.1727 20.4254C18.4847 20.7416 18.8935 20.9 19.3023 20.9C19.7112 20.9 20.12 20.7416 20.432 20.4254C21.0559 19.793 21.0559 18.7672 20.432 18.1354L14.018 11.6341C13.5481 11.1577 12.8555 11.0402 12.2766 11.2822L10.9636 9.95131L12.7783 8.11133C13.3566 8.48131 14.1408 8.40124 14.6587 7.87812C15.2566 7.272 15.2705 6.30292 14.6881 5.71258L10.5663 1.53405C9.98329 0.943717 9.0278 0.957745 8.42925 1.56269C7.91259 2.0864 7.83532 2.88364 8.19918 3.46989L3.4373 8.2972C2.85721 7.92897 2.07471 8.00729 1.55689 8.531C0.959494 9.13536 0.945652 10.1039 1.52806 10.6936Z" fill="#FF4136"/>
</svg>
