<svg width="22" height="22" viewBox="0 0 22 22" fill="none" xmlns="http://www.w3.org/2000/svg">
<g clip-path="url(#clip0_4028_42)">
<path d="M2.75 3.78125C2.75 3.21171 3.21171 2.75 3.78125 2.75H8.79018C9.35972 2.75 9.82143 3.21171 9.82143 3.78125V8.79018C9.82143 9.35972 9.35972 9.82143 8.79018 9.82143H3.78125C3.21171 9.82143 2.75 9.35972 2.75 8.79018V3.78125Z" fill="#FF4136"/>
<path d="M2.75 13.2098C2.75 12.6403 3.21171 12.1786 3.78125 12.1786H8.79018C9.35972 12.1786 9.82143 12.6403 9.82143 13.2098V18.2188C9.82143 18.7883 9.35972 19.25 8.79018 19.25H3.78125C3.21171 19.25 2.75 18.7883 2.75 18.2188V13.2098Z" fill="#FF4136"/>
<path d="M12.1786 3.78125C12.1786 3.21171 12.6403 2.75 13.2098 2.75H18.2188C18.7883 2.75 19.25 3.21171 19.25 3.78125V8.79018C19.25 9.35972 18.7883 9.82143 18.2188 9.82143H13.2098C12.6403 9.82143 12.1786 9.35972 12.1786 8.79018V3.78125Z" fill="#FF4136"/>
<path d="M12.1786 13.2098C12.1786 12.6403 12.6403 12.1786 13.2098 12.1786H18.2188C18.7883 12.1786 19.25 12.6403 19.25 13.2098V18.2188C19.25 18.7883 18.7883 19.25 18.2188 19.25H13.2098C12.6403 19.25 12.1786 18.7883 12.1786 18.2188V13.2098Z" fill="#FF4136"/>
</g>
<defs>
<clipPath id="clip0_4028_42">
<rect width="22" height="22" fill="white"/>
</clipPath>
</defs>
</svg>
