<svg width="40" height="40" viewBox="0 0 40 40" fill="none" xmlns="http://www.w3.org/2000/svg">
<g clip-path="url(#clip0_3259_9819)">
<path fill-rule="evenodd" clip-rule="evenodd" d="M22.6781 5.52022C22.3857 5.87402 22.2857 6.55713 22.1499 9.12958C22.0834 10.3869 22.0695 10.4691 21.8516 10.8905C21.4224 11.7201 20.8585 12.2685 17.8781 14.7547C15.5865 16.6663 14.5745 17.7189 14.3046 18.4714C14.2404 18.6505 14.2173 20.6717 14.2178 26.0503L14.2185 33.385L14.3969 33.7442C14.6135 34.1801 14.8961 34.4431 15.3562 34.6367C15.692 34.778 15.9292 34.785 22.9803 34.8638C26.983 34.9085 30.5173 34.931 30.8345 34.9137C31.8488 34.8586 32.6321 34.341 33.0743 33.4335C33.4816 32.5979 33.2927 31.4948 32.6273 30.8235L32.3669 30.5608L32.7609 30.4054C33.3327 30.1798 33.796 29.7589 34.083 29.204C34.289 28.8057 34.3284 28.6487 34.3295 28.22C34.3313 27.55 34.145 27.0506 33.7289 26.6101L33.3985 26.2604L33.8282 26.091C34.3434 25.8877 34.8701 25.4084 35.1279 24.9081C35.2847 24.604 35.3132 24.4444 35.3139 23.8665C35.3146 23.2605 35.2915 23.1421 35.1076 22.8095C34.9937 22.6036 34.8 22.3261 34.6771 22.1929L34.4537 21.9508L34.8522 21.7936C35.3489 21.5977 35.8206 21.1729 36.0839 20.6847C36.3714 20.1516 36.4171 19.2612 36.1867 18.6796C35.9844 18.169 35.4551 17.5988 34.9461 17.3432L34.5606 17.1496L29.6728 17.1297C26.9845 17.1187 24.7851 17.0849 24.7851 17.0546C24.7851 17.0243 24.9571 16.6292 25.1674 16.1766C25.7376 14.9493 26.2001 13.6865 26.5212 12.4802C27.5696 8.54209 26.7268 6.01554 24.1738 5.44285C23.908 5.38322 23.4977 5.33394 23.262 5.33337C22.889 5.33243 22.8132 5.35664 22.6781 5.52022Z" fill="#F2F2F2"/>
<path d="M3.45589 18.3467C3.6634 17.787 4.04581 17.4371 4.69688 17.2109C4.90915 17.1372 5.63427 17.1198 7.9517 17.1329C10.8529 17.1492 10.9417 17.1539 11.2405 17.3061C11.6352 17.5072 12.0569 17.9526 12.1887 18.3076C12.2737 18.5368 12.2922 19.9078 12.2922 26.0216V33.4569L12.1299 33.7451C11.9237 34.1116 11.6214 34.3993 11.2363 34.5956C10.9405 34.7463 10.8609 34.7499 7.83847 34.7499H4.74353L4.34693 34.5408C3.90035 34.3053 3.61985 33.995 3.45732 33.5567C3.29314 33.1138 3.29178 18.7894 3.45589 18.3467Z" fill="#FF4136"/>
<circle cx="8" cy="21.4189" r="2" fill="white"/>
</g>
<defs>
<clipPath id="clip0_3259_9819">
<rect width="40" height="40" fill="white"/>
</clipPath>
</defs>
</svg>
