<svg width="130" height="50" viewBox="0 0 130 50" fill="none" xmlns="http://www.w3.org/2000/svg">
<path d="M11.8947 8.80348C11.8947 8.64342 11.8947 8.40332 11.6416 8.40332H11.3042L9.617 8.80348C9.53264 8.80348 9.36392 8.88352 9.36392 9.20365V16.8868C7.42365 15.2061 6.15825 15.2061 5.73646 15.2061C3.88054 15.2061 0 16.0064 0 22.8092C0 29.2118 3.62747 30.0121 5.31466 30.0121C8.09852 30.0121 9.617 28.6516 9.617 28.6516C9.78572 29.3719 9.87008 30.2522 10.4606 29.9321L11.726 29.2118C11.8104 29.1318 12.0634 29.0517 12.0634 28.9717C12.0634 28.8116 11.8947 26.1706 11.8947 24.9701V8.80348ZM9.44829 27.0509C9.44829 27.0509 7.92981 28.3314 5.56774 28.3314C2.69951 28.3314 2.69952 24.81 2.69952 22.5691C2.69952 19.928 2.95259 17.0468 6.15825 17.0468C7.17057 17.0468 8.43597 17.527 9.36392 18.0072V27.0509H9.44829ZM19.9932 15.2061C16.2814 15.2061 13.5819 17.9272 13.5819 22.6491C13.5819 28.4115 17.4624 30.0922 20.6681 30.0922C22.1022 30.0922 23.3676 29.692 24.2956 29.2918C25.3079 28.8917 25.4766 28.6516 25.4766 28.5715V28.4115L24.8861 27.131C24.8861 27.0509 24.8017 26.9709 24.7174 26.9709H24.633C24.5487 26.9709 24.3799 27.0509 24.2112 27.131C23.1145 27.6912 22.0179 28.1714 20.6681 28.1714C18.5591 28.1714 16.1971 26.7308 16.1971 23.2894V23.1293H25.4766C25.7297 23.1293 25.814 23.0493 25.814 22.6491V22.409C25.814 16.4866 22.6927 15.2061 19.9932 15.2061ZM16.1971 21.2886C16.2814 18.1673 18.053 16.9668 19.7402 16.9668C20.8368 16.9668 21.9335 17.367 22.6084 18.7275C23.1145 19.848 23.1145 21.0485 23.1145 21.2085C23.1145 21.2886 16.1971 21.2886 16.1971 21.2886ZM41.8424 15.2061C40.4926 15.2061 39.2272 15.6863 37.287 16.9668C36.6964 15.7663 35.6841 15.2061 34.3344 15.2061C32.3941 15.2061 31.1287 16.0064 29.7789 16.9668C29.6946 16.5666 29.4415 15.7663 29.2728 15.4462C29.1041 15.046 28.851 15.2061 28.6823 15.2861L27.2482 16.0064C27.1638 16.0064 27.0794 16.0865 27.0794 16.1665C27.0794 16.1665 27.0794 16.2465 27.1638 16.4066C27.4169 16.8067 27.67 17.2869 27.67 19.2878V29.3719C27.67 29.692 27.8387 29.772 28.0918 29.772H29.7789C30.1164 29.772 30.2007 29.612 30.2007 29.3719V18.4074C31.2131 17.6871 32.141 17.2069 33.322 17.2069C35.3467 17.2069 35.431 18.8076 35.431 19.6079V29.3719C35.431 29.692 35.5998 29.772 35.8528 29.772H37.54C37.7087 29.772 37.9618 29.772 37.9618 29.3719V18.4074L38.2149 18.2473C38.3836 18.1673 39.7334 17.2069 41.0831 17.2069C43.1078 17.2069 43.1921 18.8076 43.1921 19.6079V29.3719C43.1921 29.692 43.3608 29.772 43.6139 29.772H45.3011C45.4698 29.772 45.7229 29.772 45.7229 29.3719V19.6879C45.3855 17.7671 45.2168 15.2061 41.8424 15.2061ZM50.0252 15.6063H48.3381C48.1693 15.6063 47.9163 15.6063 47.9163 16.0064V29.3719C47.9163 29.692 48.085 29.772 48.3381 29.772H50.0252C50.194 29.772 50.447 29.772 50.447 29.3719V16.0064C50.447 15.8464 50.447 15.6063 50.0252 15.6063ZM49.4347 9.52378C48.5068 9.52378 47.7475 10.2441 47.7475 11.1244C47.7475 12.0048 48.5068 12.7251 49.4347 12.7251C50.3627 12.7251 51.1219 12.0048 51.1219 11.1244C51.1219 10.2441 50.3627 9.52378 49.4347 9.52378ZM59.0517 21.7688C57.0271 20.9684 55.6773 20.4882 55.6773 19.0477C55.6773 18.0072 56.5209 17.0468 58.3769 17.0468C59.2205 17.0468 60.064 17.2069 61.2451 17.6871C61.4138 17.7671 61.4982 17.7671 61.7512 17.8472C61.8356 17.8472 62.0043 17.8472 62.0887 17.6071L62.6792 16.4866C62.7635 16.4066 62.8479 16.1665 62.3418 15.9264C61.92 15.6863 61.0764 15.4462 60.5702 15.3662C59.7266 15.2061 58.7987 15.046 58.1238 15.046C55.0868 15.046 53.0622 16.7267 53.0622 19.0477C53.0622 21.5287 55.1712 22.329 57.4489 23.2094C59.4735 24.0097 60.7389 24.4899 60.7389 25.8504C60.7389 27.131 59.7266 27.9313 57.8707 27.9313C56.774 27.9313 55.3399 27.6112 54.4963 27.211C53.9902 26.9709 53.7371 26.8909 53.5683 26.8108H53.484C53.3153 26.8108 53.3153 26.8909 53.3153 26.9709L52.6404 28.1714V28.4115C52.6404 28.6516 53.1466 28.8116 53.2309 28.8917C54.0745 29.2918 56.0991 29.8521 57.8707 29.8521C60.6546 29.8521 63.4384 28.4915 63.4384 25.7704C63.4384 23.4495 61.1607 22.5691 59.0517 21.7688ZM89.4212 17.6871L90.1804 16.0865C90.2648 16.0064 90.3491 15.7663 89.9273 15.6863C89.5899 15.6063 89.1681 15.4462 88.6619 15.4462C86.9748 15.4462 85.9624 16.6467 85.2032 17.447L84.7814 17.9272C84.697 17.367 84.444 16.5666 84.0222 15.9264C83.9378 15.7663 83.7691 15.5262 83.516 15.4462H83.4317C83.3473 15.4462 83.3473 15.5262 83.1786 15.5262L81.9132 16.3266C81.8288 16.4066 81.8288 16.4066 81.8288 16.5666C81.8288 16.7267 81.9132 16.8067 81.9132 16.8868L82.1663 17.2869C82.5037 17.9272 82.6724 18.5675 82.6724 19.5279V29.612C82.6724 29.772 82.6724 30.0121 83.0942 30.0121H84.7814C85.1188 30.0121 85.2032 29.8521 85.2032 29.612V20.0081L85.7094 19.4478C86.2999 18.7275 87.3122 17.6871 88.2402 17.6871C88.4089 17.6871 88.6619 17.6871 88.8307 17.7671C89.0837 17.8472 89.0838 17.9272 89.1681 17.9272C89.3368 17.8472 89.4212 17.7671 89.4212 17.6871ZM95.5794 15.3662C92.7956 15.3662 89.2525 16.9668 89.2525 22.8092C89.2525 28.6516 92.8799 30.2522 95.5794 30.2522C98.279 30.2522 101.906 28.6516 101.906 22.8092C101.991 16.9668 98.3633 15.3662 95.5794 15.3662ZM95.5794 28.4915C92.0363 28.4915 91.8676 24.4099 91.8676 22.8892C91.8676 21.3686 92.0363 17.2869 95.5794 17.2869C99.1226 17.2869 99.2913 21.3686 99.2913 22.8892C99.3756 24.4099 99.2069 28.4915 95.5794 28.4915ZM80.9009 15.8464C80.8165 15.3662 80.3947 15.046 79.8886 15.046C78.6232 15.2061 77.7796 15.6863 77.4421 16.0865C76.4298 15.5262 75.2488 15.1261 74.0677 15.1261C71.0308 15.1261 67.9938 17.2869 67.9938 19.928C67.9938 21.6087 69.1749 23.0493 70.7777 23.9296C70.7777 23.9296 70.7777 24.0097 70.6934 24.0097C70.2716 24.3298 69.428 24.81 69.0905 25.3702C68.7531 26.0105 68.9218 26.5707 69.0905 26.8108C69.681 27.9313 71.6213 28.0913 74.4895 28.3314L75.08 28.4115C77.5265 28.6516 78.5388 29.8521 78.5388 30.8125C78.5388 32.0129 76.8516 33.2935 74.4052 33.2935C71.6213 33.2935 71.1152 32.3331 70.6934 31.7728C70.609 31.6128 70.609 31.2126 70.609 31.1326C70.9464 30.3323 70.2716 29.9321 69.7654 29.772C69.1749 29.692 68.5844 29.772 68.3313 30.2522C67.9095 30.9725 67.9095 31.8529 68.4156 32.5732C68.9218 33.3735 70.4403 34.8141 74.5739 34.8141H74.7426C78.6232 34.8141 80.8165 32.8133 80.9009 30.8925C80.9852 28.9717 79.8885 26.6508 75.8393 26.4907C71.8744 26.3306 71.1995 26.4907 71.1995 25.8504C71.1995 25.1301 73.5616 24.6499 74.3208 24.6499C77.2734 24.4899 79.9729 22.409 79.9729 19.848C79.9729 18.8076 79.5511 17.8472 78.7919 17.1269C78.9606 16.9668 79.298 16.8067 80.0573 16.7267C80.5634 16.8067 80.9009 16.3266 80.9009 15.8464ZM73.9834 23.3694C72.0431 23.3694 70.4403 21.6887 70.4403 20.0081C70.4403 18.4074 72.2118 16.7267 74.1521 16.7267C76.0924 16.7267 77.5265 18.3274 77.5265 20.0081C77.5265 21.6887 75.9237 23.3694 73.9834 23.3694Z" fill="#F2F2F2"/>
<path d="M115.068 27.9314C114.9 27.5312 114.815 27.1311 114.815 26.7309V15.5263C114.815 15.5263 114.815 15.4463 114.731 15.4463C114.731 15.4463 114.647 15.3663 114.309 15.4463L112.116 15.8465C112.031 15.8465 111.863 15.9265 111.863 16.2466V26.891C110.935 27.5312 109.922 28.0915 108.573 28.0915C107.307 28.0915 106.548 27.8514 106.548 26.0106V15.6064C106.464 15.5263 106.295 15.5263 106.126 15.5263L104.017 15.9265C103.933 15.9265 103.764 16.0065 103.764 16.3267V26.0906C103.764 28.0915 104.186 30.4924 108.151 30.4924C109.669 30.4924 111.357 29.6921 112.031 28.7317L112.116 28.9718C112.2 29.1319 112.284 29.372 112.622 29.9322C113.044 30.5725 113.212 30.6525 113.381 30.5725L115.49 29.532C115.575 29.452 115.743 29.452 115.743 29.292C115.743 29.2119 115.659 29.2119 115.575 28.9718C115.49 28.6517 115.237 28.3316 115.068 27.9314ZM124.685 15.3663C122.914 15.3663 121.395 16.3267 120.552 16.9669L120.299 17.127C120.13 16.5668 119.877 15.9265 119.455 15.5263C119.202 15.2862 119.033 15.3663 118.949 15.4463L117.346 16.2466C117.262 16.2466 117.177 16.3267 117.177 16.4867C117.177 16.5668 117.262 16.7268 117.43 16.8869C118.19 18.0874 118.19 18.9677 118.19 19.608V35.6946C118.19 36.0947 118.865 36.0147 119.033 35.9347L120.552 35.5345C120.805 35.4545 120.805 35.2144 120.805 35.1343V29.2119C121.227 29.452 122.492 30.1723 124.264 30.1723C126.288 30.1723 130 29.372 130 22.6492C129.916 16.1666 126.288 15.3663 124.685 15.3663ZM124.01 28.0114C122.914 28.0114 121.648 27.5312 120.805 27.1311V19.1278C121.648 18.5676 122.914 17.7672 124.095 17.7672C126.879 17.7672 127.047 20.3283 127.047 22.8093C127.132 25.4504 126.963 28.0114 124.01 28.0114ZM114.815 7.363V4.88199L109.332 0L103.764 4.88199V7.363L109.332 2.48101L114.815 7.363Z" fill="#FF4136"/>
<path d="M114.815 9.40958V11.8906L109.332 7.00861L103.764 11.8906V9.40958L109.332 4.5276L114.815 9.40958Z" fill="#FF4136"/>
</svg>
