<svg width="346" height="129" viewBox="0 0 346 129" fill="none" xmlns="http://www.w3.org/2000/svg">
<path d="M94.7274 22.8861C101.051 23.1267 108.393 23.0786 114.738 22.9221C115.467 26.3873 119.181 35.3833 120.661 39.2461L130.157 64.2685C132.036 69.2121 134.367 74.8864 135.941 79.8373L157.515 22.9618C164.085 22.9856 171.377 23.1671 177.89 22.9643C174.194 32.0915 170.676 41.7623 167.169 50.9963L146.107 106.402C139.336 106.347 132.565 106.338 125.794 106.373C123.8 100.453 121.16 93.931 118.911 88.013L104.639 50.4217C99.1694 65.395 93.2525 80.2222 87.7285 95.179C87.2005 96.609 85.0194 102.833 84.3824 103.684L83.4614 106.346L63.1725 106.328C59.3685 96.177 55.4985 86.05 51.5645 75.9477C54.9485 67.3547 58.6274 57.8827 61.6424 49.1868C63.1794 52.6033 64.6744 56.8323 66.0204 60.3778L73.0555 78.9136L73.4744 79.0241C77.7624 68.9885 81.8755 56.8723 85.8875 46.5599C88.2775 40.417 92.9984 28.868 94.7274 22.8861Z" fill="#FF4136"/>
<path d="M269.544 22.7249L271.043 22.7081L290.764 22.6802C306.838 22.6729 321.202 23.0298 333.542 35.2122C348.909 50.5535 348.94 78.3586 333.376 93.6232C319.34 107.388 303.392 106.393 285.38 106.357L270.509 106.344C269.069 101.656 265.254 91.7782 263.281 87.1982C263.523 87.2082 263.766 87.2142 264.008 87.2162L285.082 87.2312C292.368 87.2242 299.542 87.5392 306.838 86.0232C323.54 82.5552 327.741 59.8613 316.777 48.414C309.887 41.2193 298.694 41.9406 289.41 42.0852C285.111 42.1241 280.812 42.1391 276.513 42.1303C275.243 36.8296 270.426 27.6066 269.544 22.7249Z" fill="black"/>
<path d="M198.256 22.6881C204.253 22.8528 212.432 22.883 218.391 22.6786C238.14 22.0014 260.045 25.1203 258.899 50.4485C258.334 62.9172 249.816 71.0601 237.616 73.274L250.24 106.364L246.818 106.36L229.754 106.37C229.113 103.63 225.318 94.2388 224.174 91.2298L212.191 59.6527C216.577 59.6714 220.98 59.6978 225.357 59.6879C228.429 59.6974 231.736 59.1014 233.938 56.7774C237.59 52.9247 237.393 46.0528 233.511 42.4105C232.48 41.4375 231.212 40.7524 229.833 40.4236C225.548 39.3649 210.167 40.1172 204.795 40.3036C203.092 35.426 199.443 27.2647 198.256 22.6881Z" fill="black"/>
<path d="M31.6171 22.9193C38.1741 23.1494 45.2931 23.0319 51.8961 23.0655C49.9571 27.5343 48.3421 32.4581 46.5181 36.9932C41.2961 49.9791 36.6711 63.9918 31.2811 76.8509L47.0281 76.8635C45.6971 79.7334 42.2861 88.7068 41.3121 91.6998L25.6871 91.6148C25.4401 92.5338 24.7031 94.3608 24.3471 95.3218C22.9211 98.9778 21.5511 102.656 20.2398 106.354C13.4933 106.297 6.7464 106.301 0 106.367C2.8786 97.4428 7.7598 85.6698 11.1924 76.6305L31.6171 22.9193Z" fill="#FF4136"/>
<path d="M187.315 50.3334C187.938 50.8609 206.661 100.627 208.839 106.355L188.51 106.338L186.75 101.608C185.476 98.3072 184.227 94.9952 183.001 91.6752L159.945 91.6582C161.814 86.7782 163.608 81.7262 165.416 76.8131C169.381 76.8637 173.346 76.8896 177.311 76.8907C178.173 73.9022 179.985 69.5185 181.118 66.5261C183.134 61.1097 185.2 55.7119 187.315 50.3334Z" fill="#FF4136"/>
</svg>
