<svg width="40" height="40" viewBox="0 0 40 40" fill="none" xmlns="http://www.w3.org/2000/svg">
<g clip-path="url(#clip0_3259_9802)">
<g clip-path="url(#clip1_3259_9802)">
<path d="M16.2984 3.61623C17.9637 1.33373 21.3693 1.33373 23.0346 3.61623C24.0328 4.98426 25.7593 5.61265 27.4033 5.20628C30.1462 4.52827 32.755 6.7173 32.5636 9.53628C32.4488 11.2259 33.3675 12.817 34.8881 13.5624C37.4251 14.8062 38.0164 18.1599 36.0578 20.1964C34.8839 21.4169 34.5648 23.2263 35.2505 24.7747C36.3945 27.3583 34.6918 30.3075 31.8824 30.6085C30.1985 30.789 28.7911 31.9699 28.321 33.5969C27.5368 36.3113 24.3366 37.4761 21.991 35.9008C20.5851 34.9567 18.7479 34.9567 17.342 35.9008C14.9964 37.4761 11.7963 36.3113 11.012 33.5969C10.5419 31.9699 9.13446 30.789 7.45063 30.6085C4.64123 30.3075 2.93848 27.3583 4.08249 24.7747C4.76816 23.2263 4.44912 21.4169 3.2752 20.1964C1.31656 18.1599 1.90793 14.8062 4.44494 13.5624C5.96552 12.817 6.88416 11.2259 6.76944 9.53628C6.57803 6.7173 9.18681 4.52827 11.9297 5.20628C13.5737 5.61265 15.3002 4.98426 16.2984 3.61623Z" fill="#FF4136"/>
<path d="M29.1221 14.1729L16.1484 27.1465L10.21 21.208L12.4131 19.0049L16.1484 22.7402L26.9189 11.9697L29.1221 14.1729Z" fill="#F2F2F2"/>
</g>
</g>
<defs>
<clipPath id="clip0_3259_9802">
<rect width="40" height="40" fill="white"/>
</clipPath>
<clipPath id="clip1_3259_9802">
<rect width="40" height="40" fill="white"/>
</clipPath>
</defs>
</svg>
