<svg width="65" height="48" viewBox="0 0 65 48" fill="none" xmlns="http://www.w3.org/2000/svg">
<path d="M64.458 22.5456L44.9582 0.724625C44.7541 0.496768 44.5047 0.314555 44.2263 0.18975C43.9479 0.0649456 43.6466 0.000324517 43.3419 5.932e-05L30.3385 5.932e-05C29.9181 -0.00306803 29.5059 0.117523 29.1526 0.347022C28.7993 0.576522 28.5202 0.904938 28.3496 1.29194C28.1791 1.67894 28.1245 2.10768 28.1925 2.52549C28.2606 2.94331 28.4483 3.33203 28.7327 3.64389L46.929 24.0053L28.7327 44.3561C28.4483 44.668 28.2606 45.0567 28.1925 45.4745C28.1245 45.8923 28.1791 46.3211 28.3496 46.7081C28.5202 47.0951 28.7993 47.4235 29.1526 47.653C29.5059 47.8825 29.9181 48.0031 30.3385 47.9999H43.3419C43.6479 47.9951 43.9495 47.9263 44.2277 47.798C44.506 47.6696 44.7547 47.4845 44.9582 47.2544L64.458 25.4334C64.807 25.0345 64.9995 24.5211 64.9995 23.9895C64.9995 23.4579 64.807 22.9445 64.458 22.5456Z" fill="#FF4136"/>
<path d="M36.2912 22.5456L16.781 0.724567C16.5788 0.496993 16.3314 0.314853 16.0547 0.190011C15.778 0.0651694 15.4783 0.000426731 15.1751 6.51069e-07L2.17173 6.51069e-07C1.7529 -0.000324932 1.34295 0.121468 0.991364 0.35067C0.639782 0.579872 0.361616 0.906678 0.190462 1.29162C0.0226987 1.67802 -0.0320755 2.10462 0.0325745 2.52128C0.0972246 2.93795 0.278614 3.32738 0.555432 3.64383L18.7726 24.0052L0.555432 44.3561C0.275204 44.6702 0.0914107 45.0594 0.0263038 45.4766C-0.0388032 45.8937 0.0175676 46.3209 0.188592 46.7065C0.359616 47.0921 0.63796 47.4194 0.989928 47.649C1.3419 47.8785 1.75239 48.0004 2.17173 47.9999H15.1751C15.4795 47.9949 15.7796 47.926 16.0561 47.7976C16.3326 47.6692 16.5795 47.4842 16.781 47.2543L36.2912 25.4648C36.6488 25.0639 36.8466 24.5441 36.8466 24.0052C36.8466 23.4663 36.6488 22.9464 36.2912 22.5456Z" fill="#FF4136"/>
</svg>
